# xmcd CD database file
#
# Track frame offsets:
#	150
#	23292
#	45943
#	63560
#	86294
#	107172
#	130288
#	153230
#	171610
#	194431
#
# Disc length: 2935 seconds
#
# Revision: 0
# Processed by: cddbd v1.5.1PL2 Copyright (c) Steve Scherf et al.
# Submitted via: CDex 1.51
#
DISCID=790b750a
DTITLE=オルゴールメロディー - ラブ・バラード〜α波オルゴール・ベスト [Disc 2]
DYEAR=2003
DGENRE=Instrumental
TTITLE0=Tsunami
TTITLE1=らいおんハート
TTITLE2=You Go Your Way
TTITLE3=Alone
TTITLE4=新大阪
TTITLE5=Final Distance
TTITLE6=Love Day Afer Tomorrow
TTITLE7=涙そうそう
TTITLE8=桜坂
TTITLE9=Everything
EXTD=YEAR: 2003
EXTT0=
EXTT1=
EXTT2=
EXTT3=
EXTT4=
EXTT5=
EXTT6=
EXTT7=
EXTT8=
EXTT9=
PLAYORDER=
